<svg height="496pt" viewBox="0 0 496 496" width="496pt" xmlns="http://www.w3.org/2000/svg"><path d="m248 8c-132.546875 0-240 107.453125-240 240s107.453125 240 240 240 240-107.453125 240-240-107.453125-240-240-240zm0 432c-106.039062 0-192-85.960938-192-192s85.960938-192 192-192 192 85.960938 192 192c-.027344 106.027344-85.972656 191.972656-192 192zm0 0" fill="#57a4ff"/><path d="m248 56c-106.039062 0-192 85.960938-192 192s85.960938 192 192 192 192-85.960938 192-192c-.027344-106.027344-85.972656-191.972656-192-192zm-56 280h-32v-176h32zm136 0h-32v-176h32zm0 0" fill="#57a4ff"/><g fill="#004fac"><path d="m248 496c-136.964844 0-248-111.035156-248-248s111.035156-248 248-248 248 111.035156 248 248c-.160156 136.902344-111.097656 247.839844-248 248zm0-480c-128.128906 0-232 103.871094-232 232s103.871094 232 232 232 232-103.871094 232-232c-.140625-128.070312-103.929688-231.859375-232-232zm0 0"/><path d="m248 56c-106.039062 0-192 85.960938-192 192s85.960938 192 192 192 192-85.960938 192-192c-.027344-106.027344-85.972656-191.972656-192-192zm-56 280h-32v-176h32zm136 0h-32v-176h32zm0 0"/></g></svg>