<svg height="32" viewBox="0 0 32 32" width="32" xmlns="http://www.w3.org/2000/svg"><g fill="none" fill-rule="evenodd"><circle cx="19.5" cy="19.5" fill="#a852ef" r="12.5"/><rect fill="#f4b" height="23" rx="3" width="23"/><path d="m7.42787879 18.4242424c-.31030458 0-.5527264-.0872718-.72727273-.2618182-.17454633-.1745463-.26181818-.4105035-.26181818-.7078787v-11.73333338c0-.29737522.08727185-.53333246.26181818-.70787879.17454633-.17454632.41696815-.26181818.72727273-.26181818h3.80121211c2.2109202 0 3.9240343.59474153 5.1393939 1.78424243 1.2153597 1.18950089 1.8230304 2.87029217 1.8230304 5.04242422 0 2.1721321-.6076707 3.8561557-1.8230304 5.0521212-1.2153596 1.1959656-2.9284737 1.7939394-5.1393939 1.7939394zm3.68484851-1.6678788c3.3616329 0 5.0424242-1.7260433 5.0424242-5.1781818 0-3.4392091-1.6807913-5.15878786-5.0424242-5.15878786h-2.67636366v10.33696966z" fill="#fff"/></g></svg>