<svg height="511pt" viewBox="-65 0 511 511.99958" width="511pt" xmlns="http://www.w3.org/2000/svg"><path d="m350.441406 446.820312c1.507813 3.851563-.394531 8.195313-4.242187 9.710938-2.300781.902344-57.464844 22.117188-155.675781 22.117188-98.882813 0-153.425782-21.226563-155.699219-22.132813-3.832031-1.523437-5.71875-5.855469-4.214844-9.699219l159.898437-408.960937zm0 0" fill="#ec407a"/><path d="m174.421875 79 106.28125 271.738281c18.175781 46.496094-12.328125 97.695313-61.878906 103.769531-65.554688 8.035157-135.585938 3.808594-188.164063-7.824218-1.632812 4.179687.488282 8.371094 4.164063 9.835937 2.273437.902344 56.816406 22.128907 155.703125 22.128907 98.210937 0 153.371094-21.214844 155.671875-22.117188 3.851562-1.511719 5.75-5.859375 4.242187-9.710938l-159.933594-408.964843zm0 0" fill="#c2185b"/><path d="m378.683594 453.875c-5.183594-12.761719-19.800782-18.949219-32.566406-13.800781-.550782.214843-56.136719 21.839843-155.589844 21.839843-99.421875 0-155-21.609374-155.496094-21.804687-12.785156-5.226563-27.433594.921875-32.660156 13.699219-5.238282 12.808594.890625 27.417968 13.699218 32.65625 2.550782 1.042968 63.691407 25.535156 174.457032 25.535156 110.738281 0 171.902344-24.488281 174.453125-25.53125 12.738281-5.210938 18.886719-19.832031 13.703125-32.59375zm0 0" fill="#ffca28"/><path d="m378.683594 453.875c-3.535156-8.703125-11.457032-14.34375-20.183594-15.421875 5.539062 12.972656-.738281 27.785156-13.519531 33.011719-2.550781 1.046875-63.714844 25.535156-174.453125 25.535156-91.085938 0-148.605469-16.558594-167.589844-23.023438 2.675781 5.679688 7.289062 10.101563 13.132812 12.492188 2.550782 1.039062 63.691407 25.53125 174.457032 25.53125 110.738281 0 171.902344-24.488281 174.453125-25.53125 12.738281-5.210938 18.886719-19.832031 13.703125-32.59375zm0 0" fill="#ffa000"/><path d="m145.367188 183.496094-12.382813 1.429687 18.6875-47.804687c34.03125-5.898438 50.890625-12.777344 69.6875-20.515625l16.445313 42.066406-6.828126 2.800781c-27.355468 11.210938-56.15625 18.621094-85.609374 22.023438zm116.960937 58.25 6.859375-2.785156-16.441406-42.0625-7.042969 2.867187c-39.480469 16.070313-81.230469 25.03125-124.09375 26.640625l-4.914063.183594-17.695312 45.273437 11.050781-.066406c52.660157-.300781 103.890625-10.414063 152.277344-30.050781zm-154.710937 116.195312c64.308593 0 126.90625-12.09375 186.0625-35.949218l6.882812-2.777344-16.46875-42.125-7.03125 2.84375c-53.855469 21.761718-110.863281 32.796875-169.441406 32.796875-10.433594 0-17.867188-.355469-24.355469-.621094l-17.285156 44.21875c11.984375.746094 23.929687 1.613281 41.636719 1.613281zm207.875-.53125-7.027344 2.824219c-63.863282 25.675781-131.4375 38.691406-200.847656 38.691406-22.644532 0-39.375-1.289062-57.125-2.972656l-17.015626 43.527344c13.324219 1.460937 38.816407 4.589843 74.144532 4.589843 75.121094 0 148.269531-14.074218 217.414062-41.835937l6.898438-2.769531zm0 0" fill="#42a5f5"/><path d="m241.1875 249.652344-16.460938-42.105469c12.238282-4.125 19.726563-7.273437 28.019532-10.648437l16.441406 42.0625c-8.113281 3.292968-15.820312 6.507812-28 10.691406zm-19.828125-133.046875c-8.335937 3.429687-15.910156 6.675781-28.050781 10.570312l16.46875 42.125c12.152344-4.015625 19.886718-7.292969 28.027344-10.628906zm64.007813 252.300781c2.378906 18.324219-2.097657 36.382812-11.65625 51.199219 27.980468-8.300781 47.371093-16.285157 58.21875-20.640625l-16.4375-42.058594c-8.480469 3.410156-16.921876 6.878906-30.125 11.5zm15.195312-49.691406-16.46875-42.121094c-8.304688 3.355469-15.964844 6.53125-27.992188 10.710938l16.472657 42.140624c12.101562-4.253906 19.742187-7.40625 27.988281-10.730468zm0 0" fill="#1976d2"/><path d="m241.21875 43.902344h-18.914062c-3.015626 0-4.902344-3.265625-3.394532-5.875l9.21875-15.96875c3.972656-6.878906 1.996094-15.886719-4.808594-19.984375-6.933593-4.175781-15.914062-1.835938-19.941406 5.140625l-9.457031 16.382812c-1.507813 2.613282-5.277344 2.613282-6.785156 0l-9.21875-15.964844c-3.972657-6.882812-12.761719-9.675781-19.714844-5.828124-7.082031 3.917968-9.546875 12.863281-5.515625 19.839843l9.457031 16.382813c1.507813 2.609375-.378906 5.875-3.394531 5.875h-18.914062c-7.96875 0-14.425782 6.460937-14.425782 14.429687 0 7.964844 6.457032 14.425781 14.425782 14.425781h18.914062c3.015625 0 4.902344 3.265626 3.394531 5.875l-9.21875 15.964844c-3.972656 6.882813-1.996093 15.890625 4.808594 19.988282 6.933594 4.175781 15.914063 1.835937 19.941406-5.144532l9.457031-16.378906c1.507813-2.613281 5.28125-2.613281 6.785157 0l9.21875 15.964844c3.972656 6.878906 12.761719 9.675781 19.714843 5.828125 7.082032-3.917969 9.542969-12.863281 5.515626-19.839844l-9.457032-16.382813c-1.507812-2.609374.378906-5.875 3.394532-5.875h18.914062c7.96875 0 14.429688-6.460937 14.429688-14.429687s-6.460938-14.425781-14.429688-14.425781zm0 0" fill="#ffca28"/><path d="m241.21875 43.902344h-1.269531c3.003906 9.320312-3.960938 18.855468-13.730469 18.855468h-18.914062c-3.015626 0-4.902344 3.265626-3.394532 5.875l9.457032 16.382813c5.40625 9.363281-1.078126 21.09375-11.652344 21.550781l1.421875 2.460938c3.972656 6.882812 12.761719 9.675781 19.714843 5.832031 7.082032-3.917969 9.542969-12.867187 5.515626-19.84375l-9.457032-16.382813c-1.507812-2.609374.378906-5.875 3.394532-5.875h18.914062c7.96875 0 14.429688-6.460937 14.429688-14.425781 0-7.972656-6.460938-14.429687-14.429688-14.429687zm0 0" fill="#ffa000"/></svg>